<svg xmlns="http://www.w3.org/2000/svg" version="1.1" xmlns:xlink="http://www.w3.org/1999/xlink" xmlns:svgjs="http://svgjs.dev/svgjs" width="1000" height="1000" viewBox="0 0 1000 1000"><rect width="1000" height="1000" fill="#ffffff"></rect><g transform="matrix(0.7,0,0,0.7,149.57575757575756,282.1265587044535)"><svg viewBox="0 0 396 247" data-background-color="#ffffff" preserveAspectRatio="xMidYMid meet" height="623" width="1000" xmlns="http://www.w3.org/2000/svg" xmlns:xlink="http://www.w3.org/1999/xlink"><defs></defs><g id="tight-bounds" transform="matrix(1,0,0,1,0.2400000000000091,-0.09999999999999432)"><svg viewBox="0 0 395.52 247.2" height="247.2" width="395.52"><g><svg></svg></g><g><svg viewBox="0 0 395.52 247.2" height="247.2" width="395.52"><g transform="matrix(1,0,0,1,75.54432,106.95958011521114)"><svg viewBox="0 0 244.43135999999998 33.28083976957772" height="33.28083976957772" width="244.43135999999998"><g><svg viewBox="0 0 284.2734890277547 38.70559178278726" height="33.28083976957772" width="244.43135999999998"><g transform="matrix(1,0,0,1,0,5.349325637129066)"><svg viewBox="0 0 244.43135999999996 28.006940508529127" height="28.006940508529127" width="244.43135999999996"><g><svg viewBox="0 0 244.43135999999996 28.006940508529127" height="28.006940508529127" width="244.43135999999996"><g><svg viewBox="0 0 244.43135999999996 28.006940508529127" height="28.006940508529127" width="244.43135999999996"><g transform="matrix(1,0,0,1,0,0)"><svg width="244.43135999999996" viewBox="3.700000047683716 -35 310.67999267578125 35.599998474121094" height="28.006940508529127" data-palette-color="#000000"><path d="M3.7 0L3.7-34.4 14.75-34.4 14.75-8.8 32.4-8.8 32.4 0 3.7 0ZM48.6 0L37.55 0 37.55-34.4 48.6-34.4 48.6 0ZM56.5 0L56.5-34.4 67.55-34.4 67.55-8.8 85.2-8.8 85.2 0 56.5 0ZM120.94-35Q127.54-35 131.79-32.33 136.04-29.65 136.14-24.4L136.14-24.4 136.14-23.8 125.79-23.8 125.79-24Q125.79-25.5 124.69-26.5 123.59-27.5 121.34-27.5L121.34-27.5Q119.14-27.5 117.97-26.85 116.79-26.2 116.79-25.25L116.79-25.25Q116.79-23.9 118.39-23.25 119.99-22.6 123.54-21.9L123.54-21.9Q127.69-21.05 130.37-20.13 133.04-19.2 135.04-17.1 137.04-15 137.09-11.4L137.09-11.4Q137.09-5.3 132.97-2.35 128.84 0.6 121.94 0.6L121.94 0.6Q113.89 0.6 109.42-2.1 104.94-4.8 104.94-11.65L104.94-11.65 115.39-11.65Q115.39-9.05 116.74-8.18 118.09-7.3 120.94-7.3L120.94-7.3Q123.04-7.3 124.42-7.75 125.79-8.2 125.79-9.6L125.79-9.6Q125.79-10.85 124.27-11.48 122.74-12.1 119.29-12.8L119.29-12.8Q115.09-13.7 112.34-14.68 109.59-15.65 107.54-17.9 105.49-20.15 105.49-24L105.49-24Q105.49-29.65 109.87-32.33 114.24-35 120.94-35L120.94-35ZM173.64-25.6L162.39-25.6 162.39 0 151.34 0 151.34-25.6 140.04-25.6 140.04-34.4 173.64-34.4 173.64-25.6ZM212.94-13.85Q212.94-6.8 208.49-3.1 204.04 0.6 195.84 0.6L195.84 0.6Q187.64 0.6 183.16-3.1 178.69-6.8 178.69-13.85L178.69-13.85 178.69-34.4 189.74-34.4 189.74-14Q189.74-11.1 191.29-9.38 192.84-7.65 195.79-7.65L195.79-7.65Q198.74-7.65 200.31-9.4 201.89-11.15 201.89-14L201.89-14 201.89-34.4 212.94-34.4 212.94-13.85ZM235.23-34.4Q253.28-34.4 253.28-17.2L253.28-17.2Q253.28 0 235.23 0L235.23 0 220.33 0 220.33-34.4 235.23-34.4ZM231.38-26.15L231.38-8.25 235.03-8.25Q241.98-8.25 241.98-15.7L241.98-15.7 241.98-18.7Q241.98-26.15 235.03-26.15L235.03-26.15 231.38-26.15ZM270.78 0L259.73 0 259.73-34.4 270.78-34.4 270.78 0ZM295.78-35Q304.68-35 309.53-30.45 314.38-25.9 314.38-17.2L314.38-17.2Q314.38-8.5 309.53-3.95 304.68 0.6 295.78 0.6L295.78 0.6Q286.88 0.6 282.05-3.93 277.23-8.45 277.23-17.2L277.23-17.2Q277.23-25.95 282.05-30.48 286.88-35 295.78-35L295.78-35ZM295.78-26.75Q292.23-26.75 290.38-24.6 288.53-22.45 288.53-18.8L288.53-18.8 288.53-15.6Q288.53-11.95 290.38-9.8 292.23-7.65 295.78-7.65L295.78-7.65Q299.33-7.65 301.2-9.8 303.08-11.95 303.08-15.6L303.08-15.6 303.08-18.8Q303.08-22.45 301.2-24.6 299.33-26.75 295.78-26.75L295.78-26.75Z" opacity="1" transform="matrix(1,0,0,1,0,0)" fill="#000000" class="undefined-text-0" data-fill-palette-color="primary" id="text-0"></path></svg></g></svg></g></svg></g></svg></g><g transform="matrix(1,0,0,1,251.04312648749146,0)"><svg viewBox="0 0 33.230362540263236 38.70559178278726" height="38.70559178278726" width="33.230362540263236"><g><svg xmlns="http://www.w3.org/2000/svg" xmlns:xlink="http://www.w3.org/1999/xlink" version="1.1" x="0" y="0" viewBox="4.37399959564209 1 41.209999084472656 48" enable-background="new 0 0 50 50" xml:space="preserve" height="38.70559178278726" width="33.230362540263236" class="icon-icon-0" data-fill-palette-color="accent" id="icon-0"><g fill="#000000" data-fill-palette-color="accent"><path fill="#000000" d="M39 29h-4V10.448C35 7.47 32.278 5 29.217 5h-8.389C17.812 5 15 7.47 15 10.448V29h-4V10.448C11 5.286 15.627 1 20.828 1h8.389C34.464 1 39 5.286 39 10.448V29z" data-fill-palette-color="accent"></path><path fill="#000000" d="M38.291 14.438c4.027 0 7.293 3.266 7.293 7.292 0 4.027-3.266 7.292-7.293 7.292" data-fill-palette-color="accent"></path><path fill="#000000" d="M11.667 14.438c-4.027 0-7.293 3.266-7.293 7.292 0 4.027 3.266 7.292 7.293 7.292" data-fill-palette-color="accent"></path><g fill="#000000" data-fill-palette-color="accent"><path fill="#000000" d="M32 33.508C32 37.646 28.646 41 24.508 41h-0.017C20.354 41 17 37.646 17 33.508V15.492C17 11.354 20.354 8 24.492 8h0.017C28.646 8 32 11.354 32 15.492V33.508z" data-fill-palette-color="accent"></path><path fill="#000000" d="M34.213 49h-3.695c0-3-2.465-5.494-5.495-5.494-3.03 0-5.495 2.494-5.495 5.494h-3.695c0-5 4.123-9.189 9.19-9.189C30.09 39.811 34.213 44 34.213 49z" data-fill-palette-color="accent"></path></g></g></svg></g></svg></g></svg></g></svg></g><path d="M216.29 100.96L216.29 35.759 391.973 35.759 391.973 211.441 216.29 211.441 216.29 146.24 218.462 146.24 218.462 209.27 389.801 209.27 389.801 37.93 218.462 37.93 218.462 100.96Z" fill="#000000" stroke="transparent" data-fill-palette-color="primary"></path></svg></g></svg><rect width="395.52" height="247.2" fill="none" stroke="none" visibility="hidden"></rect></g></svg></g></svg>